<?xml version="1.0" encoding="UTF-8" standalone="no"?>
<!-- Created with Inkscape (http://www.inkscape.org/) -->

<svg
   width="126.64723mm"
   height="99.37751mm"
   viewBox="0 0 126.64723 99.37751"
   version="1.1"
   id="svg5"
   xml:space="preserve"
   inkscape:version="1.2.1 (8a69933317, 2022-10-28, custom)"
   sodipodi:docname="logo.svg"
   xmlns:inkscape="http://www.inkscape.org/namespaces/inkscape"
   xmlns:sodipodi="http://sodipodi.sourceforge.net/DTD/sodipodi-0.dtd"
   xmlns="http://www.w3.org/2000/svg"
   xmlns:svg="http://www.w3.org/2000/svg"><sodipodi:namedview
     id="namedview7"
     pagecolor="#ffffff"
     bordercolor="#666666"
     borderopacity="1.0"
     inkscape:showpageshadow="2"
     inkscape:pageopacity="0.0"
     inkscape:pagecheckerboard="0"
     inkscape:deskcolor="#d1d1d1"
     inkscape:document-units="mm"
     showgrid="false"
     inkscape:zoom="0.5946522"
     inkscape:cx="-132.00994"
     inkscape:cy="160.59808"
     inkscape:window-width="2560"
     inkscape:window-height="1016"
     inkscape:window-x="0"
     inkscape:window-y="27"
     inkscape:window-maximized="1"
     inkscape:current-layer="svg5"><inkscape:page
       x="0"
       y="0"
       width="126.64722"
       height="99.37751"
       id="page162" /><inkscape:page
       x="-420.35864"
       y="-148.74283"
       width="215.89999"
       height="279.40002"
       id="page164" /></sodipodi:namedview><defs
     id="defs2" /><g
     inkscape:label="Layer 1"
     inkscape:groupmode="layer"
     id="layer1"
     transform="translate(-640.35863,-148.74283)" /><g
     id="g158"
     transform="matrix(0.03527778,0,0,-0.03527778,0,99.377506)"
     style="fill:#f9f9f9"><path
       d="m 18,338 h 35 l 47,155 h 120 l 46,-155 h 66 L 198,788 h -51 z m 94,192 48,164 49,-164 z m 738,1835 h 234 v 37 H 916 v 169 h 168 v 38 H 916 v 169 h 168 v 38 H 850 Z m 690,-676 h 235 v 35 h -167 v 171 h 166 v 37 h -166 v 171 h 165 v 36 H 1540 Z M 485,1014 h 66 v 208 h 167 v 38 H 551 v 171 h 167 v 35 H 485 Z m -76,1351 h 66 v 206 h 167 v -206 h 41 v 452 H 642 V 2610 H 475 v 207 h -66 z m 510,-676 h 66 v 451 h -66 z m 1821,0 h 68 v 451 h -68 z M 457,338 h 68 v 450 h -68 z m 53,1352 v 353 l 181,-353 h 62 v 450 h -37 v -355 c 0,-1 -2,-3 -3,-4 L 533,2140 H 473 V 1690 Z M 0,1235 c 0,-115 49,-231 180,-231 135,0 181,120 181,235 0,19 -1,38 -3,57 l -5,28 c -7,29 -12,41 -16,49 -34,67 -81,101 -160,101 -63,0 -114,-29 -144,-84 -2,-3 -5,-7 -7,-11 -10,-22 -16,-46 -21,-71 l -2,-12 c -2,-20 -3,-41 -3,-61 z m 86,-124 c -6,14 -10,29 -15,45 l -6,40 -2,47 2,38 6,40 15,46 c 17,38 48,72 93,72 96,0 119,-126 119,-200 0,-14 -3,-29 -2,-43 -7,-64 -34,-157 -115,-157 -47,0 -77,31 -95,72 z m 1825,578 h 67 v 414 h 46 c 40,0 87,-4 103,-44 5,-13 7,-22 7,-36 0,-58 -28,-79 -83,-100 -1,-1 -3,-2 -3,-4 l 97,-230 h 74 l -87,211 c 0,6 0,6 2,7 10,8 15,11 26,20 27,24 36,62 36,97 0,10 -2,19 -5,29 -7,23 -16,36 -33,52 -22,21 -53,34 -84,34 h -163 z m 487,-5 23,-3 c 1,-1 5,-1 5,-1 l 19,-1 c 2,0 12,0 14,0 54,0 109,23 134,75 9,19 13,36 13,57 0,20 -3,39 -13,57 -10,17 -23,30 -39,43 -11,8 -25,17 -38,25 l -15,8 -76,39 c -25,13 -49,36 -49,66 0,41 40,64 78,64 20,0 38,-8 54,-19 4,-2 13,-10 15,-12 l 21,-22 37,35 c -37,41 -81,53 -122,53 -70,0 -130,-44 -130,-116 0,-44 29,-86 67,-108 l 25,-13 c 36,-19 74,-31 105,-58 13,-11 28,-30 28,-48 0,-29 -12,-53 -34,-72 -16,-13 -40,-18 -59,-18 -42,0 -70,20 -92,53 l -13,19 -50,-29 c 1,-6 6,-11 8,-13 14,-23 35,-40 59,-52 z M 123,2366 h 68 v 415 h 117 v 36 H 6 v -36 h 117 z m 2904,-677 h 67 v 415 h 117 v 0 36 h -303 v -36 h 119 z M 10,1853 c 0,-26 1,-36 1,-37 14,-81 58,-136 149,-136 27,0 51,5 77,15 7,5 16,10 23,15 16,13 30,33 36,53 10,40 13,74 13,81 0,1 0,14 0,19 v 277 h -37 v -303 l -4,-35 c -10,-48 -39,-85 -92,-85 -70,0 -94,48 -99,109 v 314 H 10 Z M 1153,328 c 4,0 23,-1 27,-1 76,0 128,43 140,119 l 4,42 v 300 h -37 V 495 c 0,-31 -5,-59 -19,-87 -17,-27 -46,-43 -79,-43 -105,0 -97,105 -98,181 v 241 h -67 V 552 c 1,-33 -1,-62 3,-92 8,-59 40,-103 95,-125 10,-4 20,-6 31,-7 z m 91,1361 h 51 l 132,450 h -35 l -105,-361 -113,361 h -63 z m 2154,0 h 66 v 176 l 124,275 h -41 l -102,-227 -105,227 h -68 l 2,-8 124,-270 z M 637,337 h 293 v 38 H 733 L 914,788 H 651 v -37 h 175 z m 1542,791 c 58,15 62,7 131,-30 72,-45 46,-38 176,30 123,60 61,60 218,4 77,-27 81,-34 157,-60 69,-27 46,-4 165,-64 92,-34 184,-72 276,-105 l 219,-79 69,187 c 0,0 -4,-3 -219,76 -80,30 -195,75 -276,105 -142,63 -103,48 -142,60 -72,22 -130,45 -203,71 -57,22 -84,34 -141,56 -46,23 -62,11 -104,-11 -54,-30 -115,-68 -149,-83 -16,4 0,0 -62,27 -38,18 -76,30 -118,18 l -115,-37 c -66,30 -127,56 -192,97 -195,117 -199,128 -226,128 -31,0 -58,-19 -184,-101 l -203,-117 c 11,-33 50,-138 69,-191 61,38 99,53 180,105 157,98 119,98 176,64 108,-64 180,-105 291,-161 77,-38 62,-38 131,-12 l 34,12 z m -654,-588 25,-69 h 1414 l 22,69 z m 2040,-271 23,69 H 1975 l 25,-69 z M 2337,0 2361,70 H 501 L 527,0 Z m 1128,0 24,68 h -722 l 20,-68"
       style="fill:#f9f9f9;fill-opacity:1;fill-rule:nonzero;stroke:none"
       id="path160" /></g></svg>
